<mxfile host="app.diagrams.net" modified="2022-09-21T23:21:32.167Z" agent="5.0 (Windows NT 10.0; WOW64) AppleWebKit/537.36 (KHTML, like Gecko) Chrome/105.0.0.0 Safari/537.36" etag="gmUKKphTYttXrU0FxJlj" version="20.3.3" type="github">
  <diagram name="Page-1" id="03018318-947c-dd8e-b7a3-06fadd420f32">
    <mxGraphModel dx="1422" dy="1604" grid="1" gridSize="10" guides="1" tooltips="1" connect="1" arrows="1" fold="1" page="1" pageScale="1" pageWidth="1100" pageHeight="850" background="#ffffff" math="0" shadow="0">
      <root>
        <mxCell id="0" />
        <mxCell id="1" parent="0" />
        <mxCell id="8SOifNOOEwgQtKwgCEEf-16" value="" style="strokeWidth=1;shadow=0;dashed=0;align=center;html=1;shape=mxgraph.mockup.containers.browserWindow;rSize=0;strokeColor=#666666;strokeColor2=#008cff;strokeColor3=#c4c4c4;mainText=,;recursiveResize=0;rounded=1;fillStyle=solid;fontFamily=Georgia;fontSize=26;fontColor=#99CCFF;fillColor=none;" vertex="1" parent="1">
          <mxGeometry x="10" y="-99" width="1080" height="949" as="geometry" />
        </mxCell>
        <mxCell id="8SOifNOOEwgQtKwgCEEf-17" value="Page 1" style="strokeWidth=1;shadow=0;dashed=0;align=center;html=1;shape=mxgraph.mockup.containers.anchor;fontSize=17;fontColor=#666666;align=left;rounded=1;fillStyle=solid;strokeColor=#000000;fontFamily=Georgia;fillColor=#1793FF;" vertex="1" parent="8SOifNOOEwgQtKwgCEEf-16">
          <mxGeometry x="60" y="12" width="110" height="26" as="geometry" />
        </mxCell>
        <mxCell id="8SOifNOOEwgQtKwgCEEf-18" value="https://www.draw.io" style="strokeWidth=1;shadow=0;dashed=0;align=center;html=1;shape=mxgraph.mockup.containers.anchor;rSize=0;fontSize=17;fontColor=#666666;align=left;rounded=1;fillStyle=solid;strokeColor=#000000;fontFamily=Georgia;fillColor=#1793FF;" vertex="1" parent="8SOifNOOEwgQtKwgCEEf-16">
          <mxGeometry x="130" y="60" width="250" height="26" as="geometry" />
        </mxCell>
        <mxCell id="8SOifNOOEwgQtKwgCEEf-7" value="" style="rounded=0;whiteSpace=wrap;html=1;shadow=0;fillStyle=solid;strokeColor=#000000;strokeWidth=2;fontFamily=Georgia;fontSize=26;fontColor=#99CCFF;fillColor=#CCE5FF;" vertex="1" parent="1">
          <mxGeometry x="10" y="10" width="1080" height="830" as="geometry" />
        </mxCell>
        <mxCell id="8SOifNOOEwgQtKwgCEEf-6" value="" style="shape=process;whiteSpace=wrap;html=1;backgroundOutline=1;rounded=1;shadow=0;fillStyle=solid;strokeColor=#000000;strokeWidth=2;fontFamily=Georgia;fontSize=26;fontColor=#99CCFF;fillColor=#B4CAE0;" vertex="1" parent="1">
          <mxGeometry x="20" y="155" width="1060" height="60" as="geometry" />
        </mxCell>
        <mxCell id="8SOifNOOEwgQtKwgCEEf-2" value="" style="rounded=1;whiteSpace=wrap;html=1;fillColor=#8FA1B3;" vertex="1" parent="1">
          <mxGeometry x="20" y="20" width="1060" height="120" as="geometry" />
        </mxCell>
        <mxCell id="677b7b8949515195-3" value="Search" style="strokeWidth=1;shadow=0;dashed=0;align=center;html=1;shape=mxgraph.mockup.forms.searchBox;strokeColor=#999999;mainText=;strokeColor2=#008cff;fontColor=#666666;fontSize=17;align=left;spacingLeft=3;rounded=0;labelBackgroundColor=none;comic=1;" parent="1" vertex="1">
          <mxGeometry x="840" y="95" width="220" height="30" as="geometry" />
        </mxCell>
        <mxCell id="677b7b8949515195-8" value="" style="whiteSpace=wrap;html=1;rounded=0;shadow=0;labelBackgroundColor=none;strokeWidth=1;fillColor=#B4CAE0;fontFamily=Verdana;fontSize=12;align=center;comic=1;strokeColor=#B4CAE0;" parent="1" vertex="1">
          <mxGeometry x="30" y="230" width="200" height="590" as="geometry" />
        </mxCell>
        <mxCell id="677b7b8949515195-15" value="&lt;div style=&quot;text-align: justify&quot;&gt;Clasicos Argentino es un sitio web dedicado a rendir tributo a los autos que han marcado un antes y depues en la industria automotriz nacional.&amp;nbsp;&lt;/div&gt;&lt;div style=&quot;text-align: justify&quot;&gt;El trabajo que realizamos es el de compilar y mostrarte los clasicos que permanecen en funcionamiento y en excelente estado de concervacion. Las imagenes que presentamos son aportados por los dueÃ±os de estos vehiculos, que quieren compartir con la comunidad su trabajo y dedicacion.&lt;/div&gt;" style="whiteSpace=wrap;html=1;rounded=0;shadow=0;labelBackgroundColor=none;strokeWidth=1;fillColor=#B4CAE0;fontFamily=Verdana;fontSize=12;align=center;verticalAlign=top;spacing=10;comic=1;" parent="1" vertex="1">
          <mxGeometry x="250" y="233" width="580" height="107" as="geometry" />
        </mxCell>
        <mxCell id="677b7b8949515195-25" value="" style="whiteSpace=wrap;html=1;rounded=0;shadow=0;labelBackgroundColor=none;strokeWidth=1;fillColor=#B4CAE0;fontFamily=Verdana;fontSize=12;align=center;comic=1;" parent="1" vertex="1">
          <mxGeometry x="840" y="230" width="230" height="400" as="geometry" />
        </mxCell>
        <mxCell id="677b7b8949515195-27" value="Section 1" style="text;html=1;points=[];align=left;verticalAlign=top;spacingTop=-4;fontSize=14;fontFamily=Verdana" parent="1" vertex="1">
          <mxGeometry x="40" y="250" width="170" height="20" as="geometry" />
        </mxCell>
        <mxCell id="677b7b8949515195-28" value="Section 2" style="text;html=1;points=[];align=left;verticalAlign=top;spacingTop=-4;fontSize=14;fontFamily=Verdana" parent="1" vertex="1">
          <mxGeometry x="40" y="286" width="170" height="20" as="geometry" />
        </mxCell>
        <mxCell id="677b7b8949515195-29" value="Section 3" style="text;html=1;points=[];align=left;verticalAlign=top;spacingTop=-4;fontSize=14;fontFamily=Verdana" parent="1" vertex="1">
          <mxGeometry x="40" y="321" width="170" height="20" as="geometry" />
        </mxCell>
        <mxCell id="677b7b8949515195-30" value="Section 4" style="text;html=1;points=[];align=left;verticalAlign=top;spacingTop=-4;fontSize=14;fontFamily=Verdana" parent="1" vertex="1">
          <mxGeometry x="40" y="357" width="170" height="20" as="geometry" />
        </mxCell>
        <mxCell id="677b7b8949515195-31" value="Section 7" style="text;html=1;points=[];align=left;verticalAlign=top;spacingTop=-4;fontSize=14;fontFamily=Verdana" parent="1" vertex="1">
          <mxGeometry x="40" y="464" width="170" height="20" as="geometry" />
        </mxCell>
        <mxCell id="677b7b8949515195-32" value="Section 8" style="text;html=1;points=[];align=left;verticalAlign=top;spacingTop=-4;fontSize=14;fontFamily=Verdana" parent="1" vertex="1">
          <mxGeometry x="40" y="500" width="170" height="20" as="geometry" />
        </mxCell>
        <mxCell id="677b7b8949515195-33" value="Section 9" style="text;html=1;points=[];align=left;verticalAlign=top;spacingTop=-4;fontSize=14;fontFamily=Verdana" parent="1" vertex="1">
          <mxGeometry x="40" y="536" width="170" height="20" as="geometry" />
        </mxCell>
        <mxCell id="677b7b8949515195-34" value="Section 10" style="text;html=1;points=[];align=left;verticalAlign=top;spacingTop=-4;fontSize=14;fontFamily=Verdana" parent="1" vertex="1">
          <mxGeometry x="40" y="571" width="170" height="20" as="geometry" />
        </mxCell>
        <mxCell id="677b7b8949515195-35" value="Section 11" style="text;html=1;points=[];align=left;verticalAlign=top;spacingTop=-4;fontSize=14;fontFamily=Verdana" parent="1" vertex="1">
          <mxGeometry x="40" y="607" width="170" height="20" as="geometry" />
        </mxCell>
        <mxCell id="677b7b8949515195-36" value="Section 12" style="text;html=1;points=[];align=left;verticalAlign=top;spacingTop=-4;fontSize=14;fontFamily=Verdana" parent="1" vertex="1">
          <mxGeometry x="40" y="643" width="170" height="20" as="geometry" />
        </mxCell>
        <mxCell id="677b7b8949515195-37" value="Section 13" style="text;html=1;points=[];align=left;verticalAlign=top;spacingTop=-4;fontSize=14;fontFamily=Verdana" parent="1" vertex="1">
          <mxGeometry x="40" y="679" width="170" height="20" as="geometry" />
        </mxCell>
        <mxCell id="677b7b8949515195-38" value="Section 14" style="text;html=1;points=[];align=left;verticalAlign=top;spacingTop=-4;fontSize=14;fontFamily=Verdana" parent="1" vertex="1">
          <mxGeometry x="40" y="714" width="170" height="20" as="geometry" />
        </mxCell>
        <mxCell id="677b7b8949515195-39" value="Section 5" style="text;html=1;points=[];align=left;verticalAlign=top;spacingTop=-4;fontSize=14;fontFamily=Verdana" parent="1" vertex="1">
          <mxGeometry x="40" y="393" width="170" height="20" as="geometry" />
        </mxCell>
        <mxCell id="677b7b8949515195-40" value="Section 6" style="text;html=1;points=[];align=left;verticalAlign=top;spacingTop=-4;fontSize=14;fontFamily=Verdana" parent="1" vertex="1">
          <mxGeometry x="40" y="429" width="170" height="20" as="geometry" />
        </mxCell>
        <mxCell id="677b7b8949515195-41" value="Section 15" style="text;html=1;points=[];align=left;verticalAlign=top;spacingTop=-4;fontSize=14;fontFamily=Verdana" parent="1" vertex="1">
          <mxGeometry x="40" y="750" width="170" height="20" as="geometry" />
        </mxCell>
        <mxCell id="677b7b8949515195-42" value="External Links" style="text;html=1;points=[];align=left;verticalAlign=top;spacingTop=-4;fontSize=14;fontFamily=Verdana" parent="1" vertex="1">
          <mxGeometry x="860" y="653" width="170" height="20" as="geometry" />
        </mxCell>
        <mxCell id="677b7b8949515195-44" value="Feature 1" style="text;html=1;points=[];align=left;verticalAlign=top;spacingTop=-4;fontSize=14;fontFamily=Verdana" parent="1" vertex="1">
          <mxGeometry x="860" y="250" width="170" height="20" as="geometry" />
        </mxCell>
        <mxCell id="677b7b8949515195-45" value="Feature 2" style="text;html=1;points=[];align=left;verticalAlign=top;spacingTop=-4;fontSize=14;fontFamily=Verdana" parent="1" vertex="1">
          <mxGeometry x="860" y="285" width="170" height="20" as="geometry" />
        </mxCell>
        <mxCell id="677b7b8949515195-46" value="Feature 3" style="text;html=1;points=[];align=left;verticalAlign=top;spacingTop=-4;fontSize=14;fontFamily=Verdana" parent="1" vertex="1">
          <mxGeometry x="860" y="320" width="170" height="20" as="geometry" />
        </mxCell>
        <mxCell id="677b7b8949515195-47" value="Feature 4" style="text;html=1;points=[];align=left;verticalAlign=top;spacingTop=-4;fontSize=14;fontFamily=Verdana" parent="1" vertex="1">
          <mxGeometry x="860" y="355" width="170" height="20" as="geometry" />
        </mxCell>
        <mxCell id="677b7b8949515195-48" value="Feature 5" style="text;html=1;points=[];align=left;verticalAlign=top;spacingTop=-4;fontSize=14;fontFamily=Verdana" parent="1" vertex="1">
          <mxGeometry x="860" y="390" width="170" height="20" as="geometry" />
        </mxCell>
        <mxCell id="677b7b8949515195-49" value="Feature 6" style="text;html=1;points=[];align=left;verticalAlign=top;spacingTop=-4;fontSize=14;fontFamily=Verdana" parent="1" vertex="1">
          <mxGeometry x="860" y="425" width="170" height="20" as="geometry" />
        </mxCell>
        <mxCell id="8SOifNOOEwgQtKwgCEEf-19" value="" style="shape=parallelogram;perimeter=parallelogramPerimeter;whiteSpace=wrap;html=1;fixedSize=1;rounded=1;shadow=0;fillStyle=solid;strokeColor=#000000;strokeWidth=2;fontFamily=Georgia;fontSize=26;fontColor=#000000;fillColor=#CCE5FF;" vertex="1" parent="1">
          <mxGeometry x="50" y="43.13" width="350" height="71.25" as="geometry" />
        </mxCell>
        <mxCell id="8SOifNOOEwgQtKwgCEEf-9" value="" style="strokeWidth=1;shadow=0;dashed=0;align=center;html=1;shape=mxgraph.mockup.forms.rrect;rSize=0;strokeColor=#000000;rounded=1;fillStyle=solid;fontFamily=Georgia;fontSize=26;fontColor=#99CCFF;fillColor=#8FA1B3;" vertex="1" parent="1">
          <mxGeometry x="190" y="170" width="690" height="30" as="geometry" />
        </mxCell>
        <mxCell id="8SOifNOOEwgQtKwgCEEf-10" value="&lt;font color=&quot;#333333&quot;&gt;Ford&lt;/font&gt;" style="strokeColor=inherit;fillColor=inherit;gradientColor=inherit;strokeWidth=1;shadow=0;dashed=0;align=center;html=1;shape=mxgraph.mockup.forms.rrect;rSize=0;fontSize=17;fontColor=#666666;rounded=1;fillStyle=solid;fontFamily=Georgia;" vertex="1" parent="8SOifNOOEwgQtKwgCEEf-9">
          <mxGeometry width="115" height="30" as="geometry" />
        </mxCell>
        <mxCell id="8SOifNOOEwgQtKwgCEEf-11" value="&lt;font color=&quot;#333333&quot;&gt;Chevrolet&lt;/font&gt;" style="strokeColor=inherit;fillColor=inherit;gradientColor=inherit;strokeWidth=1;shadow=0;dashed=0;align=center;html=1;shape=mxgraph.mockup.forms.rrect;rSize=0;fontSize=17;fontColor=#666666;rounded=1;fillStyle=solid;fontFamily=Georgia;" vertex="1" parent="8SOifNOOEwgQtKwgCEEf-9">
          <mxGeometry x="115" width="115" height="30" as="geometry" />
        </mxCell>
        <mxCell id="8SOifNOOEwgQtKwgCEEf-12" value="&lt;font color=&quot;#333333&quot;&gt;Dodge&lt;/font&gt;" style="strokeColor=inherit;fillColor=inherit;gradientColor=inherit;strokeWidth=1;shadow=0;dashed=0;align=center;html=1;shape=mxgraph.mockup.forms.rrect;rSize=0;fontSize=17;fontColor=#666666;rounded=1;fillStyle=solid;fontFamily=Georgia;" vertex="1" parent="8SOifNOOEwgQtKwgCEEf-9">
          <mxGeometry x="230" width="115" height="30" as="geometry" />
        </mxCell>
        <mxCell id="8SOifNOOEwgQtKwgCEEf-13" value="&lt;font color=&quot;#333333&quot;&gt;Torino&lt;/font&gt;" style="strokeColor=inherit;fillColor=inherit;gradientColor=inherit;strokeWidth=1;shadow=0;dashed=0;align=center;html=1;shape=mxgraph.mockup.forms.rrect;rSize=0;fontSize=17;fontColor=#666666;rounded=1;fillStyle=solid;fontFamily=Georgia;" vertex="1" parent="8SOifNOOEwgQtKwgCEEf-9">
          <mxGeometry x="345.00000000000006" width="115" height="30" as="geometry" />
        </mxCell>
        <mxCell id="8SOifNOOEwgQtKwgCEEf-14" value="&lt;font color=&quot;#333333&quot;&gt;Otros&lt;/font&gt;" style="strokeColor=inherit;fillColor=inherit;gradientColor=inherit;strokeWidth=1;shadow=0;dashed=0;align=center;html=1;shape=mxgraph.mockup.forms.rrect;rSize=0;fontSize=17;fontColor=#666666;rounded=1;fillStyle=solid;fontFamily=Georgia;" vertex="1" parent="8SOifNOOEwgQtKwgCEEf-9">
          <mxGeometry x="460" width="115" height="30" as="geometry" />
        </mxCell>
        <mxCell id="8SOifNOOEwgQtKwgCEEf-15" value="&lt;font color=&quot;#333333&quot;&gt;Contacto&lt;/font&gt;" style="strokeColor=inherit;fillColor=inherit;gradientColor=inherit;strokeWidth=1;shadow=0;dashed=0;align=center;html=1;shape=mxgraph.mockup.forms.rrect;rSize=0;fontSize=17;fontColor=#666666;rounded=1;fillStyle=solid;fontFamily=Georgia;" vertex="1" parent="8SOifNOOEwgQtKwgCEEf-9">
          <mxGeometry x="575.0000000000001" width="115" height="30" as="geometry" />
        </mxCell>
        <mxCell id="8SOifNOOEwgQtKwgCEEf-4" value="&lt;b&gt;&lt;font face=&quot;Georgia&quot; size=&quot;1&quot; style=&quot;&quot;&gt;&lt;i style=&quot;font-size: 29px;&quot;&gt;Clasicos Argentinos&lt;/i&gt;&lt;/font&gt;&lt;/b&gt;" style="shape=parallelogram;perimeter=parallelogramPerimeter;whiteSpace=wrap;html=1;fixedSize=1;shadow=0;strokeColor=#000000;strokeWidth=2;fontFamily=Verdana;fillStyle=solid;fillColor=#B4CAE0;rounded=1;" vertex="1" parent="1">
          <mxGeometry x="60" y="50" width="330" height="57.5" as="geometry" />
        </mxCell>
      </root>
    </mxGraphModel>
  </diagram>
</mxfile>
